HIERARCHY
ROOT Hips
{
	OFFSET 0.000000 0.000000 0.000000
	CHANNELS 6 Xposition Yposition Zposition Zrotation Yrotation Xrotation 
	JOINT LHipJoint
	{
		OFFSET 0.000000 0.000000 0.000000
		CHANNELS 3 Zrotation Yrotation Xrotation
		JOINT LeftUpLeg
		{
			OFFSET 1.363060 -1.794630 0.839290
			CHANNELS 3 Zrotation Yrotation Xrotation
			JOINT LeftLeg
			{
				OFFSET 2.448110 -6.726130 0.000000
				CHANNELS 3 Zrotation Yrotation Xrotation
				JOINT LeftFoot
				{
					OFFSET 2.562200 -7.039590 0.000000
					CHANNELS 3 Zrotation Yrotation Xrotation
					JOINT LeftToeBase
					{
						OFFSET 0.157640 -0.433110 2.322550
						CHANNELS 3 Zrotation Yrotation Xrotation
						End Site
						{
							OFFSET 0.000000 0.000000 0.000000
						}
					}
				}
			}
		}
	}
	JOINT RHipJoint
	{
		OFFSET 0.000000 0.000000 0.000000
		CHANNELS 3 Zrotation Yrotation Xrotation
		JOINT RightUpLeg
		{
			OFFSET -1.305520 -1.794630 0.839290
			CHANNELS 3 Zrotation Yrotation Xrotation
			JOINT RightLeg
			{
				OFFSET -2.542530 -6.985550 0.000000
				CHANNELS 3 Zrotation Yrotation Xrotation
				JOINT RightFoot
				{
					OFFSET -2.568260 -7.056230 0.000000
					CHANNELS 3 Zrotation Yrotation Xrotation
					JOINT RightToeBase
					{
						OFFSET -0.164730 -0.452590 2.363150
						CHANNELS 3 Zrotation Yrotation Xrotation
						End Site
						{
							OFFSET 0.000000 0.000000 0.000000
						}
					}
				}
			}
		}
	}
}
MOTION
Frames: 16
Frame Time: 0.008333
1.070383 17.371624 1.283142 -4.735204 -44.438626 22.542536 -9.470872 1.382108 5.807467 -4.303804 -14.483960 -26.112005 -1.895080 -0.555642 11.248073 -0.153776 -3.053530 -4.148318 -0.052599 -0.000000 -51.875300 9.686257 -0.326648 5.275713 13.544495 21.586791 -36.503316 -1.993393 -3.409347 65.359372 -1.907385 -9.339739 5.889185 -2.284300 -0.000001 -69.125700
1.073175 17.373017 1.302429 -5.109280 -43.478500 22.918414 -9.487549 1.364216 5.898007 -3.709873 -14.898815 -26.448279 -1.840815 -0.528155 11.510249 -0.191273 -3.390637 -4.200779 -0.070600 0.000000 -52.517600 9.774836 -0.205168 5.207626 14.175028 21.440955 -37.891501 -2.181787 -3.549075 68.125508 -1.744716 -8.141327 6.970824 -2.055700 0.000000 -70.678000
1.076449 17.374679 1.322703 -5.503555 -42.528940 23.317798 -9.511307 1.346375 6.000953 -3.075069 -15.312568 -26.803798 -1.782001 -0.504568 11.743746 -0.227987 -3.720107 -4.245049 -0.087400 0.000000 -53.060800 9.851136 -0.082394 5.130340 14.846817 21.225397 -39.313398 -2.375994 -3.682109 70.823269 -1.629579 -7.158603 8.066391 -1.856500 0.000000 -72.206100
1.080042 17.376746 1.343583 -5.912897 -41.605787 23.732941 -9.541462 1.328109 6.110010 -2.412358 -15.705004 -27.165050 -1.720137 -0.485534 11.941000 -0.263679 -4.038537 -4.277518 -0.103300 0.000000 -53.540600 9.915940 0.040015 5.049333 15.538262 20.973715 -40.767559 -2.574520 -3.811997 73.459051 -1.550117 -6.339394 9.170771 -1.678000 -0.000000 -73.618700
1.084108 17.378966 1.366142 -6.361696 -40.705100 24.199080 -9.586041 1.308657 6.225116 -1.707147 -16.028519 -27.589023 -1.655509 -0.468777 12.147751 -0.303208 -4.389772 -4.311374 -0.119900 -0.000001 -54.001500 9.961625 0.159873 4.980232 16.250814 20.724519 -42.288723 -2.775987 -3.940265 76.033681 -1.494083 -5.620506 10.288936 -1.507200 0.000000 -74.819699
1.088532 17.381629 1.389261 -6.835861 -39.848645 24.688313 -9.640791 1.286807 6.336275 -0.984280 -16.276470 -28.028265 -1.589860 -0.455725 12.337165 -0.344082 -4.751243 -4.338391 -0.136600 0.000000 -54.472900 9.992877 0.277140 4.922921 16.958219 20.505639 -43.854404 -2.980029 -4.070781 78.553320 -1.450859 -4.940931 11.408952 -1.326700 -0.000000 -75.775700
1.093253 17.384769 1.412922 -7.340136 -39.041465 25.206982 -9.707506 1.261388 6.439514 -0.246570 -16.427134 -28.489839 -1.523944 -0.445790 12.520970 -0.387442 -5.133957 -4.362368 -0.153501 -0.000000 -54.985001 10.008346 0.391524 4.884398 17.651404 20.345237 -45.471586 -3.186894 -4.205468 81.021149 -1.410812 -4.239742 12.524437 -1.117200 0.000000 -76.420700
1.098466 17.388603 1.436462 -7.874323 -38.293168 25.745008 -9.784631 1.230698 6.528693 0.494858 -16.475950 -28.952284 -1.458287 -0.439127 12.691615 -0.432096 -5.528074 -4.380984 -0.170500 -0.000001 -55.553100 10.009418 0.503946 4.866051 18.315112 20.263855 -47.130401 -3.397098 -4.345846 83.434658 -1.368381 -3.476986 13.638927 -0.863500 0.000000 -76.951000
1.104568 17.392795 1.461248 -8.469460 -37.589433 26.344820 -9.883484 1.192613 6.606595 1.269405 -16.383117 -29.478881 -1.391286 -0.432541 12.901433 -0.483030 -5.981809 -4.411718 -0.188499 -0.000000 -56.197100 9.985084 0.613322 4.879743 18.969791 20.287107 -48.862812 -3.611803 -4.492031 85.798326 -1.316435 -2.607081 14.731725 -0.546600 -0.000000 -77.020300
1.111604 17.397871 1.485377 -9.101422 -36.949062 26.962957 -9.993653 1.145879 6.665116 2.046923 -16.186792 -29.991976 -1.323633 -0.428305 13.099448 -0.533930 -6.438047 -4.438057 -0.205900 0.000001 -56.899800 9.944744 0.722705 4.915418 19.579844 20.415000 -50.632005 -3.832298 -4.645046 88.108316 -1.256290 -1.631272 15.808799 -0.162600 -0.000000 -77.113200
1.119970 17.403750 1.509329 -9.785062 -36.363484 27.616882 -10.120149 1.088730 6.706207 2.844622 -15.881173 -30.513500 -1.253484 -0.424664 13.305458 -0.585819 -6.907976 -4.466501 -0.222800 0.000000 -57.651200 9.882738 0.832487 4.975512 20.151148 20.654725 -52.449680 -4.059931 -4.804127 90.365261 -1.187709 -0.550201 16.858531 0.291401 0.000000 -77.166300
1.129966 17.410539 1.532763 -10.518779 -35.831366 28.300701 -10.261551 1.020316 6.730699 3.665219 -15.488905 -31.027913 -1.179227 -0.421387 13.509340 -0.636297 -7.369873 -4.493179 -0.238601 -0.000000 -58.426200 9.799872 0.944010 5.055177 20.671937 20.999332 -54.311435 -4.296464 -4.968937 92.573165 -1.112475 0.618214 17.862650 0.810400 -0.000000 -77.246600
1.142045 17.418220 1.555666 -11.305359 -35.347369 29.015222 -10.418501 0.939987 6.741286 4.517744 -15.029215 -31.531395 -1.098739 -0.417697 13.709060 -0.683779 -7.808777 -4.516772 -0.253401 0.000000 -59.197400 9.694881 1.058023 5.149969 21.135627 21.438350 -56.218745 -4.543538 -5.138431 94.735124 -1.033309 1.843425 18.804445 1.381600 0.000000 -77.371600
1.156749 17.426621 1.578432 -12.154410 -34.901156 29.768698 -10.594865 0.846939 6.741992 5.419739 -14.511472 -32.033030 -1.009476 -0.412013 13.913586 -0.728082 -8.222499 -4.539883 -0.267100 0.000000 -59.936400 9.563123 1.174272 5.256612 21.545496 21.961528 -58.175328 -4.801840 -5.310400 96.848634 -0.954221 3.080152 19.678526 1.983500 -0.000000 -77.728100
1.174199 17.435781 1.600651 -13.053156 -34.491470 30.546624 -10.786094 0.742653 6.736478 6.368484 -13.976208 -32.508472 -0.909762 -0.404832 14.101652 -0.765566 -8.573902 -4.554157 -0.279900 0.000001 -60.614300 9.409601 1.293535 5.366281 21.878208 22.542739 -60.178258 -5.073666 -5.484179 98.924058 -0.877024 4.294061 20.455426 2.595500 0.000000 -78.181800
1.194952 17.445312 1.623076 -14.014666 -34.105367 31.361302 -10.998792 0.626662 6.729345 7.385090 -13.420909 -32.974795 -0.797204 -0.394005 14.290573 -0.797472 -8.873470 -4.565281 -0.292000 0.000000 -61.212200 9.228080 1.413926 5.476091 22.144147 23.167983 -62.231824 -5.359043 -5.656916 100.958066 -0.804351 5.440159 21.129143 3.190500 -0.000000 -78.807200
